<svg width="24" height="24" viewBox="0 0 24 24" fill="none" xmlns="http://www.w3.org/2000/svg">
<g clip-path="url(#clip0_297016_396)">
<path d="M23.9765 7.05613C23.9203 5.78091 23.7141 4.90422 23.4187 4.14455C23.1139 3.33818 22.6451 2.61623 22.0308 2.01608C21.4307 1.40659 20.704 0.932983 19.9069 0.632997C19.1429 0.33759 18.2708 0.131373 16.9955 0.0751489C15.7108 0.0141629 15.303 6.10352e-05 12.0445 6.10352e-05C8.78606 6.10352e-05 8.37821 0.0141629 7.09823 0.0703873C5.82302 0.126612 4.94633 0.333012 4.18684 0.628236C3.38029 0.932983 2.65835 1.40182 2.05819 2.01608C1.4487 2.61623 0.975279 3.34294 0.675111 4.13997C0.379704 4.90422 0.173487 5.77615 0.117263 7.05136C0.0562771 8.3361 0.0421753 8.74396 0.0421753 12.0024C0.0421753 15.2609 0.0562771 15.6687 0.112501 16.9487C0.168726 18.2239 0.375126 19.1006 0.670532 19.8603C0.975279 20.6666 1.4487 21.3886 2.05819 21.9887C2.65835 22.5982 3.38505 23.0718 4.18208 23.3718C4.94633 23.6672 5.81826 23.8734 7.09366 23.9297C8.37345 23.9861 8.78148 24 12.0399 24C15.2984 24 15.7062 23.9861 16.9862 23.9297C18.2614 23.8734 19.1381 23.6672 19.8976 23.3718C21.5105 22.7482 22.7857 21.473 23.4093 19.8603C23.7046 19.096 23.911 18.2239 23.9672 16.9487C24.0234 15.6687 24.0375 15.2609 24.0375 12.0024C24.0375 8.74396 24.0327 8.3361 23.9765 7.05613ZM21.8153 16.8549C21.7636 18.027 21.5667 18.66 21.4027 19.0819C20.9994 20.1275 20.1696 20.9573 19.124 21.3606C18.7021 21.5247 18.0645 21.7215 16.897 21.773C15.6311 21.8294 15.2515 21.8433 12.0493 21.8433C8.84705 21.8433 8.46264 21.8294 7.20134 21.773C6.02924 21.7215 5.3963 21.5247 4.97435 21.3606C4.45404 21.1683 3.98044 20.8635 3.59603 20.465C3.19751 20.0758 2.89277 19.607 2.70047 19.0867C2.53637 18.6647 2.3395 18.027 2.28803 16.8597C2.23163 15.5938 2.21771 15.214 2.21771 12.0117C2.21771 8.80952 2.23163 8.42511 2.28803 7.164C2.3395 5.99189 2.53637 5.35896 2.70047 4.937C2.89277 4.41651 3.19751 3.94309 3.60079 3.5585C3.98978 3.15998 4.45862 2.85523 4.97911 2.66312C5.40107 2.49902 6.03876 2.30215 7.2061 2.2505C8.47198 2.19428 8.85181 2.18017 12.0538 2.18017C15.2608 2.18017 15.6405 2.19428 16.9018 2.2505C18.0739 2.30215 18.7068 2.49902 19.1288 2.66312C19.6491 2.85523 20.1227 3.15998 20.5071 3.5585C20.9056 3.94767 21.2104 4.41651 21.4027 4.937C21.5667 5.35896 21.7636 5.99647 21.8153 7.164C21.8715 8.42987 21.8856 8.80952 21.8856 12.0117C21.8856 15.214 21.8715 15.589 21.8153 16.8549Z" fill="#F4F4FD"/>
<path d="M12.0445 5.8371C8.64086 5.8371 5.87927 8.5985 5.87927 12.0024C5.87927 15.4062 8.64086 18.1676 12.0445 18.1676C15.4484 18.1676 18.2098 15.4062 18.2098 12.0024C18.2098 8.5985 15.4484 5.8371 12.0445 5.8371ZM12.0445 16.0016C9.8364 16.0016 8.04528 14.2107 8.04528 12.0024C8.04528 9.79405 9.8364 8.00311 12.0445 8.00311C14.2529 8.00311 16.0438 9.79405 16.0438 12.0024C16.0438 14.2107 14.2529 16.0016 12.0445 16.0016Z" fill="#F4F4FD"/>
<path d="M19.893 5.59336C19.893 6.3882 19.2486 7.03267 18.4535 7.03267C17.6587 7.03267 17.0142 6.3882 17.0142 5.59336C17.0142 4.79835 17.6587 4.15405 18.4535 4.15405C19.2486 4.15405 19.893 4.79835 19.893 5.59336Z" fill="#F4F4FD"/>
</g>
<defs>
<clipPath id="clip0_297016_396">
<rect width="24" height="24" fill="white"/>
</clipPath>
</defs>
</svg>
